# xmcd
#
# Track frame offsets:
#	150
#	16008
#	32235
#	48023
#	65319
#	81912
#	99309
#	116598
#	133508
#	151316
#	166195
#	184804
#	199920
#	215259
#	230507
#
# Disc length: 3302 seconds
#
# Revision: 1
# Processed by: cddbd v1.5.2PL0 Copyright (c) Steve Scherf et al.
# Submitted via: audiograbber 1.83.01
#
DISCID=ba0ce40f
DTITLE=Helene Fischer - Ich will immer wieder (dieses Fieber spür`n)
DYEAR=2009
DGENRE=Dance
TTITLE0=Ich will immer wieder (dieses Fieber spür`n)
TTITLE1=Verlieb Dich nie nach Mitternacht
TTITLE2=Ich will immer wieder
TTITLE3=Von hier bis unendlich
TTITLE4=Engel gehn durchs Feuer
TTITLE5=Du triffst mitten ins Herz
TTITLE6=Und morgen früh küss ich Dich wach
TTITLE7=Einfach reden oder so
TTITLE8=Feuer am Horizont
TTITLE9=Am Ende sind wir stark genug
TTITLE10=Soland Dein Herz noch für mich schlägt
TTITLE11=Manchmal kommt die Liebe einfach so
TTITLE12=Es gibt keinen Morgen danach
TTITLE13=Im Reigen der Gefühle
TTITLE14=Auf der Reise ins Licht
EXTD=
EXTT0=
EXTT1=
EXTT2=
EXTT3=
EXTT4=
EXTT5=
EXTT6=
EXTT7=
EXTT8=
EXTT9=
EXTT10=
EXTT11=
EXTT12=
EXTT13=
EXTT14=
PLAYORDER=
